<svg xmlns="http://www.w3.org/2000/svg" viewBox="0 0 131.1 73.5"><circle fill="#E51C6E" cx="21.6" cy="40.6" r="5.1"/><path fill="#1C2C5B" d="M21.6 47.2c-3.6 0-6.6-2.9-6.6-6.6s2.9-6.6 6.6-6.6 6.6 2.9 6.6 6.6-3 6.6-6.6 6.6zm0-10.1c-2 0-3.6 1.6-3.6 3.6s1.6 3.6 3.6 3.6 3.6-1.6 3.6-3.6-1.6-3.6-3.6-3.6z"/><circle fill="#FFF" cx="122.1" cy="40.6" r="5.1"/><path fill="#1C2C5B" d="M122.1 47.2c-3.6 0-6.6-2.9-6.6-6.6s2.9-6.6 6.6-6.6 6.6 2.9 6.6 6.6-3 6.6-6.6 6.6zm0-10.1c-2 0-3.6 1.6-3.6 3.6s1.6 3.6 3.6 3.6 3.6-1.6 3.6-3.6-1.6-3.6-3.6-3.6z"/><path fill="#FFD579" d="M109.9 33.6l-8.1-32.1H21.6v59.2h102.1l-2.2-27.1z"/><path fill="#1C2C5B" d="M123.7 62.2H21.6c-.8 0-1.5-.7-1.5-1.5V1.5c0-.8.7-1.5 1.5-1.5h80.2c.7 0 1.3.5 1.5 1.1l7.8 31h10.4c.8 0 1.4.6 1.5 1.4l2.2 27.1c0 .4-.1.8-.4 1.1-.3.3-.7.5-1.1.5zm-100.6-3H122l-1.9-24.1h-10.2c-.7 0-1.3-.5-1.5-1.1l-7.8-31H23.1v56.2z"/><path fill="#FFF" d="M62.4 1.5v59.2"/><path fill="#1C2C5B" d="M60.9 1.5h3v59.2h-3z"/><path fill="#FFF" d="M93.4 1.5v59.2"/><path fill="#1C2C5B" d="M91.9 1.5h3v59.2h-3z"/><path fill="#FFF" d="M67.8 6.8H88v19.4H67.8z"/><path fill="#1C2C5B" d="M88 27.7H67.8c-.8 0-1.5-.7-1.5-1.5V6.8c0-.8.7-1.5 1.5-1.5H88c.8 0 1.5.7 1.5 1.5v19.4c0 .8-.7 1.5-1.5 1.5zm-18.7-3h17.2V8.3H69.3v16.4z"/><path fill="#FFF" d="M108.1 26.2h-9.7V6.8h4.8z"/><path fill="#1C2C5B" d="M108.1 27.7h-9.7c-.8 0-1.5-.7-1.5-1.5V6.8c0-.8.7-1.5 1.5-1.5h4.8c.7 0 1.3.5 1.5 1.1l4.9 19.4c.1.4 0 .9-.3 1.3s-.8.6-1.2.6zm-8.2-3h6.3L102 8.3h-2.1v16.4z"/><path fill="#00B6B5" d="M117.7 49.7h11.9v6.5h-11.9z"/><path fill="#1C2C5B" d="M129.6 57.7h-11.9c-.8 0-1.5-.7-1.5-1.5v-6.5c0-.8.7-1.5 1.5-1.5h11.9c.8 0 1.5.7 1.5 1.5v6.5c0 .8-.7 1.5-1.5 1.5zm-10.4-3h8.9v-3.5h-8.9v3.5z"/><path fill="#00B6B5" d="M15.7 48.9h11.9v6.5H15.7z"/><path fill="#1C2C5B" d="M27.5 56.8H15.7c-.8 0-1.5-.7-1.5-1.5v-6.5c0-.8.7-1.5 1.5-1.5h11.9c.8 0 1.5.7 1.5 1.5v6.5c-.1.8-.7 1.5-1.6 1.5zm-10.3-3H26v-3.5h-8.9v3.5z"/><circle fill="#00B6B5" cx="42.5" cy="60.7" r="11.3"/><path fill="#1C2C5B" d="M42.5 73.5c-7.1 0-12.8-5.8-12.8-12.8s5.8-12.8 12.8-12.8c7.1 0 12.8 5.8 12.8 12.8s-5.7 12.8-12.8 12.8zm0-22.7c-5.4 0-9.8 4.4-9.8 9.8s4.4 9.8 9.8 9.8 9.8-4.4 9.8-9.8-4.4-9.8-9.8-9.8z"/><circle fill="#FFF" cx="42.5" cy="60.7" r="3"/><path fill="#1C2C5B" d="M42.5 65.2c-2.5 0-4.5-2-4.5-4.5s2-4.5 4.5-4.5 4.5 2 4.5 4.5-2 4.5-4.5 4.5zm0-6c-.8 0-1.5.7-1.5 1.5s.7 1.5 1.5 1.5 1.5-.7 1.5-1.5-.7-1.5-1.5-1.5z"/><circle fill="#00B6B5" cx="102" cy="60.7" r="11.3"/><path fill="#1C2C5B" d="M102 73.5c-7.1 0-12.8-5.8-12.8-12.8S95 47.8 102 47.8c7.1 0 12.8 5.8 12.8 12.8s-5.7 12.9-12.8 12.9zm0-22.7c-5.4 0-9.8 4.4-9.8 9.8s4.4 9.8 9.8 9.8 9.8-4.4 9.8-9.8-4.3-9.8-9.8-9.8z"/><circle fill="#FFF" cx="102" cy="60.7" r="3"/><path fill="#1C2C5B" d="M102 65.2c-2.5 0-4.5-2-4.5-4.5s2-4.5 4.5-4.5 4.5 2 4.5 4.5-2 4.5-4.5 4.5zm0-6c-.8 0-1.5.7-1.5 1.5s.7 1.5 1.5 1.5 1.5-.7 1.5-1.5-.6-1.5-1.5-1.5z"/><path fill="#1E2D5B" d="M88 42.7c-.8 0-1.5-.7-1.5-1.5V33c0-.8.7-1.5 1.5-1.5s1.5.7 1.5 1.5v8.2c0 .8-.7 1.5-1.5 1.5z"/><path fill="#FFF" d="M35.2 10.7H6.1"/><path fill="#1C2C5B" d="M35.2 12.2H6.1c-.8 0-1.5-.7-1.5-1.5s.7-1.5 1.5-1.5h29.1c.8 0 1.5.7 1.5 1.5s-.6 1.5-1.5 1.5z"/><path fill="#FFF" d="M38.5 16.5H9.4"/><path fill="#1C2C5B" d="M38.5 18H9.4c-.8 0-1.5-.7-1.5-1.5S8.5 15 9.4 15h29.1c.8 0 1.5.7 1.5 1.5s-.7 1.5-1.5 1.5z"/><path fill="#FFF" d="M30.6 22.4H1.5"/><path fill="#1C2C5B" d="M30.6 23.9H1.5c-.8 0-1.5-.7-1.5-1.5s.7-1.5 1.5-1.5h29.1c.8 0 1.5.7 1.5 1.5s-.7 1.5-1.5 1.5z"/></svg>