<svg xmlns="http://www.w3.org/2000/svg" viewBox="0 0 32.6 39.9"><path fill="#FFD579" d="M28 26.6c1.6 0 3-1.1 3.1-2.7.2-1.8-1.2-3.3-3-3.3h-1.2c1.7 0 3.1-1.5 3-3.3-.1-1.5-1.5-2.7-3.1-2.7h-9.6l1.2-4.6 1.2-2.6c1.1-2.4-.3-5.3-2.9-5.9l-1.9 2.2-.9 2-3 9.3c-.3 1.2-1.5 2.1-2.7 2.1H1.5v21.1h25.3c1.5 0 2.9-1.1 3.1-2.7.2-1.8-1.2-3.3-3-3.3h.9c1.5 0 2.9-1.1 3.1-2.7.2-1.4-1.2-2.9-2.9-2.9z"/><path fill="#1C2C5B" d="M26.8 39.9H1.5c-.8 0-1.5-.7-1.5-1.5v-21c0-.8.7-1.5 1.5-1.5H8c.6 0 1.1-.4 1.3-1l2-7.2c0-.1.1-.2.1-.2l3-6.6c.3-.6 1-1 1.7-.8l.8.2c1.7.4 3.1 1.5 3.8 3s.8 3.3.1 4.9l-1.1 2.5-.7 2.6h7.6c2.3 0 4.4 1.8 4.6 4 .1 1-.1 1.9-.6 2.7.3.2.5.4.7.6.8.9 1.3 2.2 1.1 3.4-.1 1-.5 1.9-1.2 2.6.8.9 1.2 2.1 1.1 3.3-.1 1.2-.8 2.3-1.8 3.1.5.8.8 1.8.7 2.8-.1 2.4-2.1 4.1-4.4 4.1zM3 36.9h23.8c.8 0 1.5-.6 1.6-1.3 0-.4-.1-.8-.4-1.1-.3-.3-.7-.5-1.1-.5-.8 0-1.5-.7-1.5-1.5s.7-1.5 1.5-1.5h.9c.8 0 1.5-.6 1.6-1.3 0-.4-.1-.8-.4-1.1-.3-.3-.7-.5-1.1-.5-.8 0-1.5-.7-1.5-1.5s.7-1.5 1.5-1.5 1.5-.6 1.6-1.3c0-.4-.1-.8-.4-1.1-.3-.3-.7-.5-1.1-.5h-1.2c-.8 0-1.5-.7-1.5-1.5s.7-1.5 1.5-1.5c.4 0 .8-.2 1.1-.5.3-.3.4-.7.4-1.1-.1-.7-.8-1.3-1.6-1.3h-9.6c-.5 0-.9-.2-1.2-.6-.3-.4-.4-.8-.3-1.3l1.2-4.6c0-.1.1-.2.1-.2L18.1 7c.3-.7.3-1.6-.1-2.3-.3-.6-.8-1.1-1.5-1.3L14 8.7l-1.9 7.1c-.5 1.9-2.2 3.2-4.2 3.2H3v17.9z"/><path fill="#FFF" d="M1.5 17.4h6.1v21.1H1.5z"/><path fill="#1C2C5B" d="M7.6 39.9H1.5c-.8 0-1.5-.7-1.5-1.5v-21c0-.8.7-1.5 1.5-1.5h6.1c.8 0 1.5.7 1.5 1.5v21.1c0 .8-.7 1.4-1.5 1.4zm-4.6-3h3.1v-18H3v18zm25-8.8h-.7c-.8 0-1.5-.7-1.5-1.5s.7-1.5 1.5-1.5h.7c.8 0 1.5.7 1.5 1.5s-.7 1.5-1.5 1.5zm-1.1-6h-.6c-.8 0-1.5-.7-1.5-1.5s.7-1.5 1.5-1.5h.6c.8 0 1.5.7 1.5 1.5s-.7 1.5-1.5 1.5zm0 11.9h-.6c-.8 0-1.5-.7-1.5-1.5s.7-1.5 1.5-1.5h.6c.8 0 1.5.7 1.5 1.5s-.7 1.5-1.5 1.5z"/></svg>